<?xml version="1.0" encoding="UTF-8"?>
<svg xmlns="http://www.w3.org/2000/svg" width="100" height="100" fill="grey">
<circle cx="7.969" cy="50" r="2.686"/>
<path d="M91.916,54.623c-1.339-0.228-2.604,0.677-2.828,2.013c-1.244,7.423-4.526,14.239-9.516,19.841 c-2.394-1.553-5.208-2.906-8.415-4.021c-0.154-0.057-0.318-0.105-0.477-0.163c2.144-6.048,3.374-12.805,3.605-19.838h0.865h9.938 c1.356,0,2.456-1.098,2.456-2.455c0-1.354-1.1-2.454-2.456-2.454h-9.938h-0.865c-0.239-7.265-1.536-14.213-3.805-20.402 c0.141-0.046,0.283-0.092,0.425-0.14c3.148-1.079,5.926-2.383,8.305-3.88c5.233,5.715,8.646,12.727,9.899,20.404 c0.198,1.204,1.237,2.06,2.422,2.06c0.128,0,0.264-0.01,0.398-0.031c1.336-0.218,2.242-1.479,2.026-2.818 c-1.531-9.369-5.914-17.86-12.676-24.554l0,0C72.939,9.932,61.92,5.348,50.205,5.243V5.238c-0.067,0-0.136,0.002-0.204,0.002 c-0.069,0-0.136-0.002-0.204-0.002v0.005C38.081,5.348,27.06,9.932,18.722,18.184l0,0C11.958,24.877,7.576,33.368,6.045,42.737 c-0.218,1.339,0.689,2.601,2.026,2.818c0.134,0.021,0.268,0.031,0.398,0.031c1.182,0,2.223-0.855,2.422-2.06 c1.252-7.678,4.664-14.689,9.897-20.404c2.379,1.497,5.159,2.801,8.305,3.88c0.142,0.048,0.285,0.094,0.427,0.14 c-2.269,6.189-3.568,13.138-3.805,20.402h-0.865h-9.939c-1.355,0-2.456,1.101-2.456,2.454c0,1.357,1.1,2.455,2.456,2.455h9.939 h0.865c0.232,7.033,1.461,13.79,3.605,19.838c-0.158,0.058-0.321,0.106-0.479,0.163c-3.205,1.115-6.021,2.469-8.413,4.021 c-4.99-5.602-8.272-12.418-9.516-19.841c-0.224-1.336-1.488-2.24-2.828-2.013C6.75,54.847,5.846,56.11,6.072,57.45 c1.527,9.103,5.77,17.396,12.269,23.986l0,0c8.384,8.496,19.541,13.214,31.456,13.321v0.004c0.067,0,0.135,0,0.204,0 c0.068,0,0.137,0,0.204,0v-0.004c11.916-0.107,23.073-4.825,31.454-13.321l0,0c6.502-6.591,10.744-14.884,12.272-23.986 C94.153,56.11,93.252,54.847,91.916,54.623z M75.555,19.593c-1.823,1.038-3.907,1.966-6.241,2.768 c-0.243,0.083-0.487,0.161-0.733,0.24c-2.092-4.388-4.615-8.025-7.445-10.821C66.403,13.336,71.303,15.977,75.555,19.593z M47.131,47.545H30.626c0.242-6.824,1.476-13.321,3.628-19.06c4.044,0.958,8.395,1.534,12.877,1.717V47.545z M47.131,52.454v16.713 c-4.563,0.184-8.985,0.779-13.086,1.768c-2.021-5.602-3.185-11.897-3.419-18.48H47.131z M52.871,52.454h16.505 c-0.233,6.583-1.397,12.879-3.419,18.48c-4.104-0.988-8.524-1.584-13.086-1.768V52.454z M52.871,47.545V30.202 c4.48-0.183,8.832-0.759,12.877-1.717c2.15,5.738,3.387,12.235,3.628,19.06H52.871z M63.753,23.908 c-3.434,0.756-7.101,1.218-10.882,1.385V11.777C57.025,13.92,60.834,18.115,63.753,23.908z M47.131,11.777v13.516 c-3.783-0.167-7.449-0.629-10.882-1.385C39.168,18.115,42.977,13.92,47.131,11.777z M24.446,19.593 c4.253-3.616,9.153-6.257,14.422-7.813c-2.832,2.796-5.354,6.434-7.446,10.821c-0.246-0.079-0.492-0.157-0.735-0.24 C28.355,21.559,26.268,20.631,24.446,19.593z M24.008,80.032c1.863-1.107,4.019-2.093,6.452-2.943 c0.233-0.081,0.471-0.159,0.707-0.236c2.142,4.623,4.802,8.471,7.807,11.404C33.484,86.65,28.393,83.87,24.008,80.032z M35.973,75.522c3.509-0.792,7.274-1.274,11.159-1.445v14.147C42.841,86.018,38.93,81.62,35.973,75.522z M52.871,88.225V74.077 c3.885,0.171,7.647,0.653,11.157,1.445C61.07,81.62,57.16,86.018,52.871,88.225z M61.026,88.257 c3.005-2.934,5.668-6.781,7.81-11.404c0.234,0.077,0.472,0.155,0.707,0.236c2.431,0.851,4.585,1.836,6.451,2.943 C71.609,83.87,66.517,86.65,61.026,88.257z"/>
<circle cx="92.032" cy="50" r="2.686"/>
</svg>
